<mxfile host="app.diagrams.net" modified="2022-04-24T07:01:27.832Z" agent="5.0 (Windows NT 10.0; Win64; x64) AppleWebKit/537.36 (KHTML, like Gecko) Chrome/100.0.4896.127 Safari/537.36" etag="k6KRrO-_7-Jzr8I-Z5Vo" version="17.4.6" type="github">
  <diagram id="PXz2ZnXhkv3Wn1BKRrqW" name="Page-1">
    <mxGraphModel dx="744" dy="401" grid="1" gridSize="10" guides="1" tooltips="1" connect="1" arrows="1" fold="1" page="1" pageScale="1" pageWidth="850" pageHeight="1100" math="0" shadow="0">
      <root>
        <mxCell id="0" />
        <mxCell id="1" parent="0" />
        <mxCell id="_9FP3kBCAHvGaEhcT8eX-1" value="" style="shape=image;verticalLabelPosition=bottom;labelBackgroundColor=default;verticalAlign=top;aspect=fixed;imageAspect=0;image=data:image/jpeg,/9j/4AAQSkZJRgABAQAAAQABAAD/4gIoSUNDX1BST0ZJTEUAAQEAAAIYAAAAAAQwAABtbnRyUkdCIFhZWiAAAAAAAAAAAAAAAABhY3NwAAAAAAAAAAAAAAAAAAAAAAAAAAAAAAAAAAAAAQAA9tYAAQAAAADTLQAAAAAAAAAAAAAAAAAAAAAAAAAAAAAAAAAAAAAAAAAAAAAAAAAAAAAAAAAAAAAAAAAAAAlkZXNjAAAA8AAAAHRyWFlaAAABZAAAABRnWFlaAAABeAAAABRiWFlaAAABjAAAABRyVFJDAAABoAAAAChnVFJDAAABoAAAAChiVFJDAAABoAAAACh3dHB0AAAByAAAABRjcHJ0AAAB3AAAADxtbHVjAAAAAAAAAAEAAAAMZW5VUwAAAFgAAAAcAHMAUgBHAEIAAAAAAAAAAAAAAAAAAAAAAAAAAAAAAAAAAAAAAAAAAAAAAAAAAAAAAAAAAAAAAAAAAAAAAAAAAAAAAAAAAAAAAAAAAAAAAAAAAAAAAAAAAFhZWiAAAAAAAABvogAAOPUAAAOQWFlaIAAAAAAAAGKZAAC3hQAAGNpYWVogAAAAAAAAJKAAAA+EAAC2z3BhcmEAAAAAAAQAAAACZmYAAPKnAAANWQAAE9AAAApbAAAAAAAAAABYWVogAAAAAAAA9tYAAQAAAADTLW1sdWMAAAAAAAAAAQAAAAxlblVTAAAAIAAAABwARwBvAG8AZwBsAGUAIABJAG4AYwAuACAAMgAwADEANv/bAEMAAwICAgICAwICAgMDAwMEBgQEBAQECAYGBQYJCAoKCQgJCQoMDwwKCw4LCQkNEQ0ODxAQERAKDBITEhATDxAQEP/bAEMBAwMDBAMECAQECBALCQsQEBAQEBAQEBAQEBAQEBAQEBAQEBAQEBAQEBAQEBAQEBAQEBAQEBAQEBAQEBAQEBAQEP/AABEIAPICGAMBIgACEQEDEQH/xAAdAAEBAAIDAQEBAAAAAAAAAAAABwUGAwQIAgEJ/8QARBAAAQMEAQIDBgQEBAMFCQAAAgEDBAAFBgcREiEIEzEUFSJBUWEjMjNxFkJSgRdicpEkU4MJGTRDc0RUV3SCo6bC1P/EABQBAQAAAAAAAAAAAAAAAAAAAAD/xAAUEQEAAAAAAAAAAAAAAAAAAAAA/9oADAMBAAIRAxEAPwD+qdKUoFKUoFKUoFKUoFKUoFKUoFKUoFKUoFajsbaGL6xgQ5F89tmXC6v+yWmz22Osm4XOR6+VHZTuXCdyMlEAHkjIBRSTtbEzyza0w645lfUdcYhCAMxmE6n5kp0xbjxWR/mdddNtsE+ZGPpWtan17era49sjZyRZmwr8ygzjZPzWLPGVeoLZDJUThhteOo0RFecRXC/kEAxLGKby2TzMzzMl15Z3f08exVxt64KHK8JKubgKgkqcchFbbUFRUR9xO9dkfCxoKR8WRa4g5W8v538rfevzxr9SOcbpKv8AeqtSglK+FTw6M/FZtP45jzvyfx2N7meFfqLsJWjFfui8115Gt9uYCKzdTbOlX+KzyX8NZxIOa08nH5GbmgrMYJe3xve1D2/InKrVepQaLrvbdnzudcMYnWqfjeXWUAK6Y9dBEZLIF2R9oxVQkxyXsL7SkCr8K9JoQJvVaTtDWrOe26NOtVw9yZbYyKVj1+ab6nYEhU4USTt5sdxEQHWVXpcD6EgEP5qPYj+w8ZddvdtatOUWOWdoyW0tuq4lvuTYiRgJKiKbRgbbzR8J1tOtlwiqqIG70pSgUpSgUpSgUpSgUpSgUpSgUpSgUpSgUpSgUpSgUpSgUpSgUpSgUpWt7Ezyza0w645lfUdcYhCAMxmE6n5kp0xbjxWR/mdddNtsE+ZGPpQdXY20MX1jAhyL57bMuF1f9ktNntsdZNwucj18qOyncuE7kZKIAPJGQCikmnMYpvLZPMzPMyXXlnd/Tx7FXG3rgocrwkq5uAqCSpxyEVttQVFRH3E71ltT69vVtce2Rs5IszYV+ZQZxsn5rFnjKvUFshkqJww2vHUaIivOIrhfyCFJoJSPhY0FI+LItcQcreX87+VvvX541+pHON0lX+9F8Knh0Z+KzafxzHnfk/jsb3M8K/UXYStGK/dF5qrUoJDI1vtzARWbqbZ0q/xWeS/hrOJBzWnk4/Izc0FZjBL2+N72oe35E5Va2TXe27Pnc64YxOtU/G8usoAV0x66CIyWQLsj7RiqhJjkvYX2lIFX4V6TQgTeq0naGtWc9t0adarh7ky2xkUrHr8031OwJCpwoknbzY7iIgOsqvS4H0JAIQ3alaRqPYj+w8ZddvdtatOUWOWdoyW0tuq4lvuTYiRgJKiKbRgbbzR8J1tOtlwiqqJu9ApSlApSlApSlApSlApSlApSlApSlApSlApSlApSlApSlApSlBI8maTPvEJj2JvcuWnXlrTLZrXPIO3OWT0W3ISei+W2zcXOleeDVg+yiK1XKlOp09s2zu25u93Y2T2yzgq+qMtWG3SRT9uuc6v91qrUCprjviC11le7Mi0Jj8uTNyTFLazcrs40ALFj+YSCjCn1dXnIiiSj08IhJ357V1d+7PvGD2O3YpgbDU3Ps0kracbimnUDbqpy7MeT5MMBy4a/PgR9SSozpDWNn1H4wJ+H2p52W83rKLJuNxf4V+4znbk6T8p4vmbhqpL9OyJ2RKCsbB8TuJYTmknXdjwnN89yS2xm5l1gYjaBmFbGHP0ykG4422KkiKotoROKicoK9ud11btPCtyYdGznArmcy2yHHGDF1k2H40hslF1h5o0QmnQJFEhJOUX7cLXl61ZXs3F/EnuOf4adasbMgXWTDXJ1uV1CysWu9sRRb9nYlmLntPLSNqTaNCgF6ufFwm9+Bl2C5g2ZHPmSQzWTmNwnZlaX4nsq2e6PKJLFBtDNFbRvoUXBNUcRertzwgek6keQtJgXiFxrJ43Ldu2TCdxi5gi8AtzhtOzIDy/JCWOFwaJfUuI48/AKVXKlPiNT2bFcVvQdn7ZsDEvKX5p7TeosI+P3aluJ+yrQValKUClKUClKUClKUClKUClKUClKUClKUClKUClKUClKUClKUClKUCpHkzSZ94hMexN7ly068taZbNa55B25yyei25CT0Xy22bi50rzwasH2URWq5Up1Ontm2d23N3u7Gye2WcFX1Rlqw26SKft1znV/utBVqUqV792feMHsduxTA2GpufZpJW043FNOoG3VTl2Y8nyYYDlw1+fAj6klB2sd8QWusr3ZkWhMflyZuSYpbWbldnGgBYsfzCQUYU+rq85EUSUenhEJO/PasPsHxO4lhOaSdd2PCc3z3JLbGbmXWBiNoGYVsYc/TKQbjjbYqSIqi2hE4qJygr25k+kNY2fUfjAn4fannZbzesosm43F/hX7jOduTpPyni+ZuGqkv07InZErF2rK9m4v4k9xz/DTrVjZkC6yYa5OtyuoWVi13tiKLfs7Esxc9p5aRtSbRoUAvVz4uED1Dq3aeFbkw6NnOBXM5ltkOOMGLrJsPxpDZKLrDzRohNOgSKJCScov24WttrzZ4GXYLmDZkc+ZJDNZOY3CdmVpfieyrZ7o8oksUG0M0VtG+hRcE1RxF6u3PCek6CR5C0mBeIXGsnjct27ZMJ3GLmCLwC3OG07MgPL8kJY4XBol9S4jjz8ApVcqU+I1PZsVxW9B2ftmwMS8pfmntN6iwj4/dqW4n7KtVagUpSgUpSgUpSgUpSgUpSgUpSgUpSgUpSgUpSgUpSgUpSgUpSglGBF7j37tPG3vhW+s2TLY/Po4hxVtzvH1UVtjXV9EcD6pVXqR7wCVhN4xrfVtjOvNYgr8DJGmQ6jcx+WrftLqInqsZ1mPK+a+Wy+IpydVeNJjTYzUyHIbfYfAXWnWjQgcAk5EhJOyoqKioqUGg7T8Pmlt3SLdK2xrmz5Q7aQcbhFPbU1YFxRU0HhU45UB5/ZKhWIeBzVmHeKv+PLBpKxW3D7ZjcVy0yWDBEYvgSyJTBvzPMQ0b6fiUelU7c89q9cUoPMdrxrfvh5z3Onte6rj7Nw/Or45kkYI1+i2yfaJrwAL7Toyult1lSHqEwNTFFVOhe1bh4bdTZphMvO9k7OW2sZfsu9heLhbrY8T0W2tNMAxHjA6SCrpC2CdZ8Iikq8dqtlKBUo3yXvabrbBmviev2c22UQJ/KzbOu5m4v0FChNDz/U4CeqpVXqPYE8W0twXnawJ141ikZ/EsYdXuEyQToFdJza88EHmMMRQL15jSFRVFxOQsNKUoFKUoFKUoFKUoFKUoFKUoFKUoFKUoFKUoFKUoFKUoFKUoFKUoFSjAi9x792njb3wrfWbJlsfn0cQ4q253j6qK2xrq+iOB9Uqr1I94BKwm8Y1vq2xnXmsQV+BkjTIdRuY/LVv2l1ET1WM6zHlfNfLZfEU5OgrlTzafh80tu6RbpW2Nc2fKHbSDjcIp7amrAuKKmg8KnHKgPP7JW/RpMabGamQ5Db7D4C6060aEDgEnIkJJ2VFRUVFSuWg8j4h4HNWYd4q/wCPLBpKxW3D7ZjcVy0yWDBEYvgSyJTBvzPMQ0b6fiUelU7c89qzlrxrfvh5z3Onte6rj7Nw/Or45kkYI1+i2yfaJrwAL7Toyult1lSHqEwNTFFVOhe1enKUET8Nups0wmXneydnLbWMv2XewvFwt1seJ6LbWmmAYjxgdJBV0hbBOs+ERSVeO1WylKCUb5L3tN1tgzXxPX7ObbKIE/lZtnXczcX6ChQmh5/qcBPVUqr1HsCeLaW4LztYE68axSM/iWMOr3CZIJ0Cuk5teeCDzGGIoF68xpCoqi4nNhoFKUoFKUoFKUoFKUoFKUoFKUoFKUoFKUoFKUoFKUoFKUoFKUoPlxtt5smXmxNsxUSEk5QkX1RU+aVD40iR4Ww91SoEubqJXP8AgJcVk33sPQl7x3mxRSO3Iq8tuiirHTkDTyhE27lSg61tuVuvNvj3a0XCNOgy2xejyYzoutPNknIkBiqoQqnoqLxXZrzjsTCrXgOWRLF4dbldsbz3InFnFYLQ+2lj9nVz8e4XCI624zGa5UuXWAbffd4EVNUJR3gXfFPZvwfYNV5cg9kfKbcceI/uraMz0Rf2JaCrV8mYNATjhiAAikREvCIieqqteYsl8QviDxe8SLZsfWuF6utQFwzlVyuk6/WdxP6zdjx44xxTv/4o4/PHr6VvULSzGzIMe77d2nK2PapQo61aoAt2/G3wX0VYrBGUsF5/JJffb7J8PKc0HDds1uW/X5mCanny4mIA4UXIc2jqoA8CdnIVpc/850u4HKHltlOpAU3U4brWO47Y8RsFuxbGbVGtlotMVuFBhxgQGo7DYoIAKJ6IiIiV3IsWLBiswYMZqPGjti0yy0CADYCnAiIp2RERERETsiVy0ClKUClKUClKUClKUClKUClKUClKUClKUClKUClKUClKUClKUClKUCvlxtt5smXmxNsxUSEk5QkX1RU+aV9UoIbGkSPC2HuqVAlzdRK5/wABLism+9h6EveO82KKR25FXlt0UVY6cgaeUIm3abbcrdebfHu1ouEadBlti9HkxnRdaebJORIDFVQhVPRUXiuzXnHYmFWvAcsiWLw63K7Y3nuROLOKwWh9tLH7Orn49wuER1txmM1ypcusA2++7wIqaoSiHo6lSkXfFPZvwfYNV5cg9kfKbcceI/uraMz0Rf2Jam2S+IXxB4veJFs2PrXC9XWoC4Zyq5XSdfrO4n9Zux48cY4p3/8AFHH549fSg9OmYNATjhiAAikREvCIieqqtRa7Zrct+vzME1PPlxMQBwouQ5tHVQB4E7OQrS5/5zpdwOUPLbKdSApupw3zQtLMbMgx7vt3acrY9qlCjrVqgC3b8bfBfRVisEZSwXn8kl99vsnw8pzVgixYsGKzBgxmo8aO2LTLLQIANgKcCIinZEREREROyJQdPHcdseI2C3YtjNqjWy0WmK3Cgw4wIDUdhsUEAFE9ERERKyNKUClKUClKUClKUClKUClKUClKUClKUClKUClKUClKUClKUClKUCp7sjZdwslzi6917bo96zy8Mq9FhvESRbbF56SnziHu3HFeUEU4N406A/mMOLZezbnabtG1traBGvOe3Zjz2Y7yr7JaYiqorcJxD3BlFRUBtFQ3jToDhEMwy2tNaWzXNslIk+TeL9eHkmX2+zUT2u6SuOOs+OwAKfC20PANgiCKInqH7rfW9v17AluOXGReshvTyS77fZgikm5yUThCJE7NtgnwtsjwDYIginqq7hSlB+EImKiQooqnCoqdlSpZc/D1i8Oc/ftVXq661vL7nnPO44TYQZTnPKrIt7glEdUu/Ufli7wq8OCq81VKUEiXPN067VGdka8HMbUC8LkGEtET4j/W/aXTV4fT/wBmckkqr+QURa3fBtmYDsqE9OwbKoF3GKflymWXOmREc/5b7BcOMH/kcES+1bNWkZzpjXGwp7N8v+PozfogK3Dv1tfcg3WKPbs3MYIXhHlEVQ6lAuE6hVO1Bu9KkXuvxCa5JSst7t20rG2icQrv5drvrQp8gltCkWUvHHAuNML2VSeJVrL4pvvAMkvbWIXVy44llLy8Bj+TRVt815e3Ps6kqtS0TlOTjOOh8urlFoKNSlKBSlKBSlKBSlKBSlKBSlKBSlKBSlKBSlKBSlKBSlKBSlKBSlTjZezbnabtG1traBGvOe3Zjz2Y7yr7JaYiqorcJxD3BlFRUBtFQ3jToDhEMwDl2Rsu4WS5xde69t0e9Z5eGVeiw3iJItti89JT5xD3bjivKCKcG8adAfzGGS1vre369gS3HLjIvWQ3p5Jd9vswRSTc5KJwhEidm2wT4W2R4BsEQRT1VfzWmtLZrm2SkSfJvF+vDyTL7fZqJ7XdJXHHWfHYAFPhbaHgGwRBFET13GgV+EImKiQooqnCoqdlSv2lBK7n4esXhzn79qq9XXWt5fc8553HCbCDKc55VZFvcEojql36j8sXeFXhwVXmusuebp12qM7I14OY2oF4XIMJaInxH+t+0umrw+n/ALM5JJVX8goi1XaUGs4NszAdlQnp2DZVAu4xT8uUyy50yIjn/LfYLhxg/wDI4Il9q2atIznTGuNhT2b5f8fRm/RAVuHfra+5BusUe3ZuYwQvCPKIqh1KBcJ1Cqdq1n3X4hNckpWW927aVjbROIV38u131oU+QS2hSLKXjjgXGmF7KpPEq0FdpU5xTfeAZJe2sQurlxxLKXl4DH8mirb5ry9ufZ1JValonKcnGcdD5dXKLVGoFKUoFKUoFKUoFKUoFKUoFKUoFKUoFKVLLzvMbhe5eI6exCXn96gOKxOfjyRiWa3OpzyEm4GhB1oqcE0wD7wKqdTYovNBU6VJxw/xE5F+NkW4rHioF6Q8Vx4H3Gk+iyp5Oi6v3SM3/pr6XUe0mPxYfio2A876oE+zY66zz9xatrR8f/X/AHoKtSpI7M8SeDir8224ts63NpyQWsCsN3Qf8jb7rsWQfy4V2MPf7d9r19tbD9lNzGbDJkxbrazRu52W5xjh3K3mvoj0dxEMRXhelxOWzROQIk70G4VM9m7Qu1uvMfV2r4Ua75/dWPaBbf5WHZIaqorcJyivKNoqKjbSKhvGKiPCIZhxbP2leod9Y1PqiHFuuwLnHSQXtCKUKwQiVR94T1FUXp5QkaZRUN8xUR6RFxwM/rDWFl1hZpESJMlXW8XV/wBuvl8nqhTbtMVEQnniREROERBBsUQGwQQBBEUSg/dZaytOtLTJZZmybve7u/7bfL7O4WZdZaoiK66qJwIoiIINjwDYIIiiIlbjSlApSlApSlApSlArEZViGK5zZXsczPG7bfLXI/Vh3CKEhklT0XpNFTlOey+qfKsvXy442y2Tzzgg2AqRES8IKJ6qq/JKCSDp/OcBTztKbMmRoYKqpjeWG7d7Zx/Sy+R+2RfVUREdcaBOERnhOKDv4sNFI++sJna/IU4O9I77xx41+Ze8GxH2cfXvLaj+nz7V+nvC8ZtKetuhcHLL2mXCZdySfLW34+2adlRqT0G7NVO/eM043yKiToLXJ/AG+7+KuZPvuNZPMTvGxPF4rQtp/T5lxWX5i/5ugEX+lPSgp9uuVuvEFi6WifGnQpQI4xIjOi606C+hCYqqEn3Ra7NecbJ4PbphGSOZdrnxE5zZbg+auyYi26zBapZr6k/Ahw4zLhr35cVPM7rwaKvNbk7k3iEwFPOyzDbJsO0t/qzcSQrdc2g+ZLbpTptvcJ3Xy5SGvC9DRKqDQVyla3gexMO2XZlvuG3kZrDbisSWTaNiVDfT8zMiO4gux3U+bbgiSdu3etkoFKUoFKUoFKUoFKUoFKUoFKUoFKll53mNwvcvEdPYhLz+9QHFYnPx5IxLNbnU55CTcDQg60VOCaYB94FVOpsUXmuIcP8AETkX42RbiseKgXpDxXHgfcaT6LKnk6Lq/dIzf+mgrFKlK6j2kx+LD8VGwHnfVAn2bHXWefuLVtaPj/6/71xOzPEng4q/NtuLbOtzackFrArDd0H/ACNvuuxZB/LhXYw9/t3Ct0rT9fbWw/ZTcxmwyZMW62s0budlucY4dyt5r6I9HcRDEV4XpcTls0TkCJO9a9s/aV6h31jU+qIcW67AucdJBe0IpQrBCJVH3hPUVRenlCRplFQ3zFRHpEXHADl2btC7W68x9XavhRrvn91Y9oFt/lYdkhqqitwnKK8o2ioqNtIqG8YqI8IhmGb1lrK060tMllmbJu97u7/tt8vs7hZl1lqiIrrqonAiiIgg2PANggiKIiV+aw1hZdYWaREiTJV1vF1f9uvl8nqhTbtMVEQnniREROERBBsUQGwQQBBEUStyoFKUoFKUoFKUoFKUoMRlWIYrnNlexzM8btt8tcj9WHcIoSGSVPRek0VOU57L6p8qnI6fznAU87SmzJkaGCqqY3lhu3e2cf0svkftkX1VERHXGgThEZ4Tiq2442y2Tzzgg2AqRES8IKJ6qq/JKkp7wvGbSnrboXByy9plwmXckny1t+PtmnZUak9BuzVTv3jNON8iok6C0H4O/iw0Uj76wmdr8hTg70jvvHHjX5l7wbEfZx9e8tqP6fPtVUt1yt14gsXS0T406FKBHGJEZ0XWnQX0ITFVQk+6LUw/gDfd/FXMn33GsnmJ3jYni8VoW0/p8y4rL8xf83QCL/SnpWk2Twe3TCMkcy7XPiJzmy3B81dkxFt1mC1SzX1J+BDhxmXDXvy4qeZ3Xg0VeaD0dSpG7k3iEwFPOyzDbJsO0t/qzcSQrdc2g+ZLbpTptvcJ3Xy5SGvC9DRKqDW8YHsTDtl2Zb7ht5Gaw24rElk2jYlQ30/MzIjuILsd1Pm24Iknbt3oNkpSlApSlApSlApSlApSp9vPL75iWv328QdbDKMhlxsex8nA6xbnzHEaB4h/mBkSOQacpyDB0GtXu43Te+VXjXeP3Gda8ExyQsDJ7tDcJiRd5qIina4jw8E202iokh8F6upfJBRJHSCqY7jlgxCxQcYxaywrRaLYyMeHBhMCyxHaH0AAFEQU/aulgWE2PXGG2jB8cbdG32aKMZonnFcddVO5uumvc3DJSMzXuRESr3Ws/QKVq8Daesbplb+CWzY+LzMli8+fZmLxHcnNcevUwJq4Pp8xrL3/ACPHsTtMi/5TfbdZrZFHqfm3CUEdhpPqbhqgin7rQZGtD2ZqS07AciZDbrg7jmaWVtwbHk8FsSlQVLhVbMV+GRGNUHzI7nIGifykgmOyYrmWIZ3aG8gwjKrPkNrdVRbnWqc1LjmqeqI40RCv+9ZigiPhbi2uxY/f8OusKSzsS0XFCziVNd86Tdp7oIrdyR5RHzY77YorPSIi2IKwggrJANuqQbrY/gXJcW3zb1VpLJKasOS8KvTIsU14WyM09FWNIJmShLyotjJFP1Fqv0ClKUClKUClKUClKUCobHjB4pJEqVdUeTUUKS5FiQO4JmDzZqLj769lK3CQqLbSdpCopl1NdAuZzxAS597tdi07ZJr0Sdsa4rapciOag7Fs7bZPXF4CRUUCVgPIA0XkXZTRJ6VTbbbbfZrdFtFphsxIMFgI0aOyCC2y0AoIAIp2QUFERE+iUHJGjRoUZqHDjtsMMALTTTQIINgKcCIinZERERERK5aVjpeSY7AvMHHJ1+t0a7XQHXIMB6UASJQtoiuE02q9RoKKikoovHKc0GRpWh5bv3RWAXpzG873VgeOXZoBccgXfI4cOSAEnIkrbrgkiKndF4712sI3Np/Zk2Rbdb7Xw7K5cRtHpDFkvsWc4y2q8IZiyZKI89uV7c0GI2Fqdy5Xpdna3kx7DsKGwLITiFUjXhgOVGDcQHu6wvKoJ/qMqXW2v5gPN6v2NA2di/vyPbZVquEOU7bbxaZaf8RbLgyvD0ZzjsvCqhCafCYGDg8iYqu3VIMrY/w23lj2eQ1Vqz7DUcVyFvlehLg22blslqnohKgvRCXjk1eioq8NpQV+lKUClKUClKUClKUClKUCoze7jdN75VeNd4/cZ1rwTHJCwMnu0NwmJF3moiKdriPDwTbTaKiSHwXq6l8kFEkdINl3nl98xLX77eIOthlGQy42PY+TgdYtz5jiNA8Q/wAwMiRyDTlOQYOtiwLCbHrjDbRg+ONujb7NFGM0TziuOuqnc3XTXubhkpGZr3IiJV7rQd3HccsGIWKDjGLWWFaLRbGRjw4MJgWWI7Q+gAAoiCn7VkqVq8Daesbplb+CWzY+LzMli8+fZmLxHcnNcevUwJq4Pp8xoNopWOv+R49idpkX/Kb7brNbIo9T824SgjsNJ9TcNUEU/da4MVzLEM7tDeQYRlVnyG1uqotzrVOalxzVPVEcaIhX/eg1vZmpLTsByJkNuuDuOZpZW3BseTwWxKVBUuFVsxX4ZEY1QfMjucgaJ/KSCY6b4W4trsWP3/DrrCks7EtFxQs4lTXfOk3ae6CK3ckeUR82O+2KKz0iItiCsIIKyQDbqkG62P4FyXFt829VaSySmrDkvCr0yLFNeFsjNPRVjSCZkoS8qLYyRT9RaCv0pSgUpSgUpSgUpSgUpUp8QEufe7XYtO2Sa9EnbGuK2qXIjmoOxbO22T1xeAkVFAlYDyANF5F2U0SelBg48YPFJIlSrqjyaihSXIsSB3BMwebNRcffXspW4SFRbaTtIVFMuproFy2xo0aFGahw47bDDAC0000CCDYCnAiIp2RERERESuO22232a3RbRaYbMSDBYCNGjsggtstAKCACKdkFBRERPoldmgUrHS8kx2BeYOOTr9bo12ugOuQYD0oAkShbRFcJptV6jQUVFJRReOU5rVMt37orAL05jed7qwPHLs0AuOQLvkcOHJACTkSVt1wSRFTui8d6DfKm2wtTuXK9Ls7W8mPYdhQ2BZCcQqka8MByowbiA93WF5VBP9RlS621/MB5fCNzaf2ZNkW3W+18OyuXEbR6QxZL7FnOMtqvCGYsmSiPPble3NblQajq/Y0DZ2L+/I9tlWq4Q5TttvFplp/xFsuDK8PRnOOy8KqEJp8JgYODyJiqq07K2P8ADbeWPZ5DVWrPsNRxXIW+V6EuDbZuWyWqeiEqC9EJeOTV6Kirw2lKCv0pSgUpSgUpSgVKdgD7437qfHXfiZt8XIcrQF9POjMxoIF+6Dd3OP3qrVKc3X3b4i9WXl3s1PsuT46Cr6K8/wC75oj+/RbHV/YVoKtWCzqwXXKsMveM2PInbBPusF6HHujTPmnDNwFFHRBSHkh55Tunes7Ws7LnZ1bMAv8ActZWy3XLKosB160w7h1ezyZIjyLR9BCSIXHHKKnCqlB4n8S1l8PepNd4z4bMEsdvh7Ral2kLFkLlsWCMG4K6BrPfurqC2jhoJkTaPk6fUg9K9SVRfF/IxvFNk6Wz7dQxb1rmzyJ0a6W4gGT1XZ1kEiTEg9zlICo6nS2DhiriF08Iq1itw+KLV27dBX3UkbHLpe9n5RaCtJ4CtlkpPhXNwOnl4DDhlppzk/PIulBDqQlr7ySJK8P24tSbQ3TCmXHFbFr3+FJOQtRXZrNivCE0pvvI2JE2DwioedxwnTwqoi0HZ8M94wLPfFPn+f6EhM2jBAx+HbL3FGKttKfe0dUhf93GgPMqLK9CuuNB188J1cc17CryXh2SWTfPjFx/cGlm5EvEMZxKfachyYIbjEO8PvuNFFisuGI+0q10OGpDyI9fCL34r1pQa1svFI+ea5ynCJbaGzf7NNthiv0eYNv/APaulpfKpGdadwTN5bim/kONWu6ukvqRvxW3VX/c1rMZrkcXD8Nv2WzTQI9ktkq4vES8IIMtE4Sr/YVrXNA49JxHRGuMTmgoSLLiVntzoqncTZhtNki/3FaDfaUpQKUpQKUpQKUpQSloffPinled8SYjgEYmEX+QrtcX0cVPuqWZtP7VVqlMBfdniovgu9v4k1/alY5/m923Gf5vH7e9Wef9SVVqDC5nmGPYBit1zTK7i3BtFminLlyD9AbFOV4+qr6InqqqiV4wxezZpevGRqPdmxkmQrzm9oyAoNjdcXoslpbZbWLHUPRHyQ1cdX+s+n0FK9KeIbR87e+NWjHImxLliSWm8MXhXYcGNMGS4zyrQOtSBJswE1E+CFU6gHt2rzZsDUu8bf4qtO225eKvIrncJUC/ORLi7i1lbOGDbTKuNi23HQDRxFQVUkVR4+FUWg9Fbx174a7fj2Rbm3Hp7Ar6tjtrkydcrvjsOXJNlkFUQ811siX0QRTn5olaJ4ItFWfAsQnbguGBWPGMs2WaXWRbrVbWYTFpt5d4kBttoREehvpI1ROScIlX5V++Nk1yK26s0s666rOxM9tsCf5a8K5Di9Ut4S/yl5AoqfRa9LAANALbYoIAiCIonZET0Sg+qlPinH2fQWX5EPZ7FIrWVsH8wetbzc4CT6KhRkqrVKfFWvneHTYFmH9XIbK9jrCfMnrjxCaFPupyBRPutBVqUpQKUpQKUpQKUpQKUpQSnYA++N+6nx134mbfFyHK0BfTzozMaCBfug3dzj96q1SnN192+IvVl5d7NT7Lk+Ogq+ivP+75oj+/RbHV/YVqrUGCzqwXXKsMveM2PInbBPusF6HHujTPmnDNwFFHRBSHkh55TunevD3iWsvh71JrvGfDZgljt8PaLUu0hYshctiwRg3BXQNZ791dQW0cNBMibR8nT6kHpXqSvbGy52dWzAL/AHLWVst1yyqLAdetMO4dXs8mSI8i0fQQkiFxxyipwqpXlfcPii1du3QV91JGxy6XvZ+UWgrSeArZZKT4VzcDp5eAw4Zaac5PzyLpQQ6kJaDK+L+RjeKbJ0tn26hi3rXNnkTo10txAMnquzrIJEmJB7nKQFR1OlsHDFXELp4RVrreGe8YFnvinz/P9CQmbRggY/Dtl7ijFW2lPvaOqQv+7jQHmVFlehXXGg6+eE6uOa62SRJXh+3FqTaG6YUy44rYte/wpJyFqK7NZsV4QmlN95GxImweEVDzuOE6eFVEWsvh2SWTfPjFx/cGlm5EvEMZxKfachyYIbjEO8PvuNFFisuGI+0q10OGpDyI9fCL34oPWla1svFI+ea5ynCJbaGzf7NNthiv0eYNv/8AatlrC5rkcXD8Nv2WzTQI9ktkq4vES8IIMtE4Sr/YVoMPpfKpGdadwTN5bim/kONWu6ukvqRvxW3VX/c1rcq0LQOPScR0RrjE5oKEiy4lZ7c6Kp3E2YbTZIv9xWt9oFKUoFKUoFKUoFSloffPinled8SYjgEYmEX+QrtcX0cVPuqWZtP7VVqlMBfdniovgu9v4k1/alY5/m923Gf5vH7e9Wef9SUFWrC5nmGPYBit1zTK7i3BtFminLlyD9AbFOV4+qr6InqqqiVmqlXiG0fO3vjVoxyJsS5YklpvDF4V2HBjTBkuM8q0DrUgSbMBNRPghVOoB7dqDzXi9mzS9eMjUe7NjJMhXnN7RkBQbG64vRZLS2y2sWOoeiPkhq46v9Z9PoKV6L3jr3w12/Hsi3NuPT2BX1bHbXJk65XfHYcuSbLIKoh5rrZEvoginPzRK867A1LvG3+KrTttuXiryK53CVAvzkS4u4tZWzhg20yrjYttx0A0cRUFVJFUePhVFqoeNk1yK26s0s666rOxM9tsCf5a8K5Di9Ut4S/yl5AoqfRaD88EWirPgWITtwXDArHjGWbLNLrIt1qtrMJi028u8SA220IiPQ30kaonJOESr8q9M18gANALbYoIAiCIonZET0SvqglPinH2fQWX5EPZ7FIrWVsH8wetbzc4CT6KhRkpTxVr53h02BZh/VyGyvY6wnzJ648QmhT7qcgUT7rSgq1KUoFKUoFKUoFTPxA2O8zsFZy3Fbe7PyHBLnHyq1xGURXJZRupJEYPT434jkpge6fE8nPbmqZSgxmM5JY8xx22ZZjNyZuFpvMRqfBlMryD7DoIYGi/RRVFrJ1EWny8NuRXArq8Q6oyGacxiV0p5eJT3i5dad4T4Le84RGLn5WHTMS6WjBW7W06282DzLguNuChAYryhIvdFRU9UoPulKUClK1jYGxcZ1rZgu+RSHjdlOpFt1uiN+dNucsvyRozKd3XS49E4RE5IlERIkDSPEG+OWMY/oeEqOy9gzUbujYqnLOPxiBy5OmnyAwVuIi9/jmt9lTmq9U21PguSQbjeNnbJJk8yyhGwOK04jrNjtzfKsW1g0ROpBUiN1xP1HjNU+AWxGk0ClKUClKUClKUClKUEj324uFysS3mAqkfBZzrN+JP5bBNEWpri/QWXAiSzX+iIfZVVKrQGDoC42YmBohCQryiovoqLXxKixZ0V6DOjNSI0hsmnmXQQwcAk4ISFeyoqKqKi9lSozhV2f0Fcoup87ubp4hLkez4TkMo+QZAl/Ds0txfyOt/kjuF2ebQQVVdBfMC10pSgUpSgVIdkPjn23ML1NCVHotgfazjJelUVGWo5klsZL6E7NFHx7flt7vpyi1tGytoW7AmYlqgwTvmW3vrasOPRTRJE91PUiVezMcOUJ18vgbH6kogXHqTXc7BLPOnZPdwvWXZJLW6ZDdBb6AekqKCDLKL3COy2ItNAvdADkuTIyUN6pSlApSlApSlApSlApSlBM/EDY7zOwVnLcVt7s/IcEucfKrXEZRFcllG6kkRg9PjfiOSmB7p8Tyc9ua3nGckseY47bMsxm5M3C03mI1PgymV5B9h0EMDRfooqi1k6iLT5eG3IrgV1eIdUZDNOYxK6U8vEp7xcutO8J8FvecIjFz8rDpmJdLRgrYW6lfDTrbzYPMuC424KEBivKEi90VFT1SvugUpSgVIfEG+OWMY/oeEqOy9gzUbujYqnLOPxiBy5OmnyAwVuIi9/jmt9lTmt32BsXGda2YLvkUh43ZTqRbdbojfnTbnLL8kaMynd10uPROEROSJRESJNd1PguSQbjeNnbJJk8yyhGwOK04jrNjtzfKsW1g0ROpBUiN1xP1HjNU+AWxEKTSlKBSlKBSlKBSlKBUj324uFysS3mAqkfBZzrN+JP5bBNEWpri/QWXAiSzX+iIfZVVKrlcUqLFnRXoM6M1IjSGyaeZdBDBwCTghIV7KioqoqL2VKD7AwdAXGzEwNEISFeUVF9FRa+qimFXZ/QVyi6nzu5uniEuR7PhOQyj5BkCX8OzS3F/I63+SO4XZ5tBBVV0F8y10ClKUClK0nZW0LdgTMS1QYJ3zLb31tWHHopokie6nqRKvZmOHKE6+XwNj9SUQINX2Q+OfbcwvU0JUei2B9rOMl6VRUZajmSWxkvoTs0UfHt+W3u+nKLStk1JrudglnnTsnu4XrLsklrdMhugt9APSVFBBllF7hHZbEWmgXugByXJkZKoN6pSlApSlApSlApSvkzBoCccMQAEUiIl4RET1VVoOOWzFkxXo85pp2M62QPNuihAYKnBISL2VFTnlF7cV5g19aNi/xFLu3hVusCHqi2csxLLkZmVou8lFIXEtDoAT8GGCr2cTzWSMeGWUbRTPcnpM3xOy3IFtffiagjOK3LmNkrbuYmK8EyyScKNtRUVDcTvI4URXyuonbdEiRYEVmDBjNR40dsWmWWgQAbAU4ERFOyIiIiIidkRKCWDu7JrJ+DsHQ+e2l0fzSbPFav0M/u2sIykKn+uO2v2r6XxIYW78Fvwrast/5Nf4aX+Pyv065ERtv+6nxVWpQRG6bg2xf71a8TxPXMTCJV/SQluuOdzG1N7yQQ3FYt8JxwniEV6vLdfjEoia+grW14Lpq1YxfVzvKr3OzLN3GXI65BdRBDjMGqKUeGyCI1EYVUTkW06j6RVw3CTqrJbW12xszEXLIFxdtd1hSGrnZLqz+pbbkwvUxIH+pEL4TD0Ns3AL4TWuvqHYr2xMYccvcBi15VYpJWjJrS06riW+5NiKuAJLwpNGJg60ap8bTrZdueEDeaUpQKUpQKUpQKUpQKUpQKx2RY7YMusc7Gcps0K7Wi5slGmQZrAvMSGiThQMCRUJF+i1kaUEeZwLcGrSUNU5NDyvGg7tYxlst0JEME44bh3QRcc6ERF4bktvLyqIjrYpwnaHfM20/hZzpHZdheHsZRbJ78ZL7gdsOQSj9OoBL6ii9qq9SHbdwuGxsga8P2LS32G7jGGZmdziOqDlrs5qqDHAx7hImKBtAqLyDQvuJwQt8hx2fxT68yu1x7vgmLbJyaLMDrjPQsCu7DL6c8cg/KjssqnKKnPXx965nch8Quep7NjGEW7W1uc7Hc8nkNXG5oC/NmBDcJhC454J2V8KqnLR9xqp223QLPbototUNmJCgshGjR2QQG2WgFBABFOyCgoiIieiJXZoNI13qPGdePzL21InXzKLs2Dd2yW7uC9cp6AqqIGYiINtCqqostCDQcr0giqqru9KUClKUClKUClKUClKUClKUCuGWzFkxXo85pp2M62QPNuihAYKnBISL2VFTnlF7cVyGYNATjhiAAikREvCIieqqtQ56TN8TstyBbX34moIzity5jZK27mJivBMsknCjbUVFQ3E7yOFEV8rqJ0NN19aNi/xFLu3hVusCHqi2csxLLkZmVou8lFIXEtDoAT8GGCr2cTzWSMeGWUbRTOmju7JrJ+DsHQ+e2l0fzSbPFav0M/u2sIykKn+uO2v2qpxIkWBFZgwYzUeNHbFplloEAGwFOBERTsiIiIiInZESuWglK+JDC3fgt+FbVlv/Jr/AA0v8flfp1yIjbf91PisPdNwbYv96teJYnrmJhErIEkJbrjncttTe8kENxWLfCccJ4hFery3X4xKImvoK1bq07a2u2NmYi5ZAuLtrusOQ1c7JdWf1bbcmF6mJA/1IhfCYehtm4BfCa0GNwXTVqxi+rneVXudmWbuMuR1yC6iCHGYNUUo8NkERqIwqonItp1H0irhuEnVVDrRtQ7Fe2JjDjl7gMWvKrFJK0ZNaG3VcS33JsRVwBJeFJoxMHWjVPjadbLtzwm80ClKUClKUClKUClKUClKUGOyLHbBl1jnYzlNmhXa0XNko0yDNYF5iQ0ScKBgSKhIv0WpezgW4NWkoapyaHleNB3axjLZboSIYJxw3Dugi450IiLw3JbeXlURHWxThLDSglA75m2n8LOdI7LsLw9jKLZPfjJfcDthyCUfp1AJfUUXtXUs/in15ldrj3fBMW2Tk0WYHXGehYFd2GX0545B+VHZZVOUVOevj71ybbuFw2NkDXh+xaW+w3cYwzMzucR1QctdnNVQY4GPcJExQNoFReQaF9xOCFvmq223QLPbototUNmJCgshGjR2QQG2WgFBABFOyCgoiIieiJQSx3IfELnqezYxhFu1tbnOx3PJ5DVxuaAvzZgQ3CYQuOeCdlfCqpy0fca2XXeo8Z14/MvbUidfMouzYN3bJbu4L1ynoCqogZiIg20Kqqiy0INByvSCKqqu70oFKUoFKUoFKUoFKV8POtR2jffdBttsVMzMkQRFE5VVVfRESg/XHG2WzeecEGwFSIiXhBRPVVX5JUKcfm+KOWcWE6/E05GcUJEkCVt3MzFeFbaVOFG2IqcEad5PcR/B5V3jV2b4qpZMxzfiaXjOKLjoqrbubGK9xBfUbWip3L1lccJ+Byr13jRo8OO1EiMNsMMALbTTYoIAApwgiidkREREREoPyLFjQozUKFHajx44C0000CADYCnAiIp2RERERET0rlpSgUpSgVHdsxZmrsqY8QWPx5D1vYjt23OLfGBF9qtSFy3cUH1J2EpGa8dyjm+PBELSJYq+XG23WyadATA0USEk5RUX1RU+dB8RZUadGZmwpDUiPIbF1p1o0MHAJORISTsqKioqKnrXLUY1kRaazddB3BejG7i29cdfuoCoDMRvhZNnIl7dcdS62U9VjF0oi+zmtWegUpSgUpSgUpSgUpSgUpXHJkx4cd2XLfbYYYAnHXXCQQABTlSJV7IiIiqqrQaltXYjGtcUW8Bbnbpdp8lq12O1Mrw5crk8qowwK/yoqopGa9gbBw17AtcGo9dv6+xt339cGbtld9kLdcmu7bagk+4GIoSgKqqgy2Ig00HPwNNAndUVV1XWEWTtnMF37fIzzVoYZdt+CQnkVEG3mqebdSFfR2Xwnl8pyMYQ9FedSrFQKUpQKUpQKUpQKUpQKUpQKUpQK+XHG2WzeecEGwFSIiXhBRPVVX5JX4861HaN990G22xUzMyRBEUTlVVV9ERKg6uzfFVLJmOb8TS8ZxRcdFVbdzYxXuIL6ja0VO5esrjhPwOVeDkcfm+KOWcWE6/E05GcUJEkCVt3MzFeFbaVOFG2IqcEad5PcR/B5V25RYsaFGahQo7UePHAWmmmgQAbAU4ERFOyIiIiIielfsaNHhx2okRhthhgBbaabFBAAFOEEUTsiIiIiIlclApSlApSlBHNsxZmrsqY8QWPx5D1vYjt23OLfGBF9qtSFy3cUH1J2EpGa8dyjm+PBELSJXosqNOjMzYUhqRHkNi6060aGDgEnIkJJ2VFRUVFT1r7cbbdbJp0BMDRRISTlFRfVFT51GtZEWms3XQdwXoxu4tvXHX7qAqAzEb4WTZyJe3XHUutlPVYxdKIvs5rQWelKUClKUClKUClKUClKUCtO2rsRjWuKLeAtzt0u0+S1a7HamV4cuVyeVUYYFf5UVUUjNewNg4a9gWttkyY8OO7LlvtsMMATjrrhIIAApypEq9kRERVVVqQ6wiyds5gu/b5GeatDDLtvwSE8iog281TzbqQr6Oy+E8vlORjCHorzqUG1aj12/r7G3ff1wZu2V32Qt1ya7ttqCT7gYihKAqqqDLYiDTQc/A00Cd1RVXeKUoFKUoFKUoFfJmLYqZkgiKcqqrwiJ9ax2S5LYcOx+4ZTlF1YttptUc5UyW+XANNCnKkvzX7IndV4REVVqTx8FyLfphkW3I8y14K+HVbcDc/DWcyvCg/eeO7hEicpC58oEXh1HD7NhlpHiKxO6S3rZq3Hsh2VMjuEy6WMxWzgNOCvCgdxkG1D6hVFQgF4jHheR54RfxMw8Ss38W26LwuK0vdAvGwHmHkT7jGtkgOf2Nf3qnwoUO2w2bfbojMWLGbFplhltAbaAU4ERFOwoidkRO1c9BKC2Xuux/i5b4eJEuOP6juJZNFuagn9XlywhuEifQBIvoKr2qcW/PLN4vc1uGvzuTtjwPHvLcu2OXBChXrJ3Oy9D8U+HmbYBcgXKIskxIF4ZFUe9PVqewNXYVs2HGj5XafMlW5xZFsucZwo8+2P8cedFkgqOMnx8xVOU7EioqoobQwwxFYbixWW2WWQRtttsUEQFE4QUROyIiduK5Kk2I5dluu8jt2rdv3hLt71ImcYy1WQZS7GIqSw5gAiA1OQBUkUERt8RIgQCEm0rNApSlApSlAqfZfvPX+JXw8QblzshygAFwsfx6E5cZ7Yl+UngaRRjAvC8G+TYLwvxVrVxveVb3ukvH9d5LLxzBLXLOHdsngEgzbxIbLpeh201RUaaAkUHZafF1IQM8EJOhR8JwLDdcWMMcwfHIVmt4uE8TUZvhXXSXk3XDXknXCXuThqpEvdVVaCM7Ra3nuTFCtGP6OYxmZFks3Sx3XI8wYhy7ZcGS6mJCNwWZorwvY21Pg2zcbL4TWtqjZr4lLVFZLJtE4vdHAbHz1xjNleMz4+JQbnQ4ooirzwJO9vRSX1qt0oJnY/EDgs68xMVy2LecEyGe55MS15VC9iKW5x+nHkIRxZJ9l+Fh5wu3PHHeqZWMyTGcdzGxzMZyyxQLzabg2rMqDPjg+w+C+omBookn7pUkfayLw2k5dSu9yyHVCEntTExwpM/Em+ETzm3V5ck28f5wNSdYHkhI2hUGwt1K440mPMjtS4j7b7D4C4062SEBgScoQqnZUVFRUVK5KBSlKBXVuVzttlgSLreLhGgwojauvyZLotNNAnqRmSogon1Va1naGzLNq3HQvFwhTLpPnSQt9ns0AEOZdpziL5cZgVVE6l6SIiJUAAEzMhASJNQsOm7lnEyHm/iFOHfru0SPwsZaMnbDZC5RR6GTREmSR+cp4VVC5VoWU7KHMHiLsOQd9VYLmWxG1/JNsdvbYtx/cJ05yPGeH59TLjnb05XtWlbWc8Qu0rXAxNzRDcPEpctDyaG7lMRZl0gCir7CPRy22Dp9KOr1r1NIbafqKQ7H4sfEOvh11dMyKw2Ub9lstl9LFZ+FJHjabVx151BIVRhpsVMyRU7IgoqKSVy7C3dfsK8KczezFtt8i/NYsxd48IgNIzs55oFba6evr6FdcFOOvnj5896DtjvkcZaBrY+nc8wqGyKB7aVuZukBsU7IquWx2QrTaenU6DaJ8+E71RsYyvGM1ssbJMPyG23u1Sx6mJtvlBIYcT/KYKqL/AL155waT/wBpDNvVkmZyz4b2sdfeYdubdtS+pcAilwriNeYqt+agqvHUqjz9qpeXaTjFe5OwtUXMMLzZ3lx6THaVbdeD/oucQVEZKLxx5ydL4J+RxE5FQqFK0DVG0yz5u54/kliPG81xpwGL9YnXfN8kjRVakR3eER+K8gkTTyInPBCSA4BgO/0ClKUClKUClKxmS5LYcOx+4ZTlF1YttptUc5UyW+XANNCnKkvzX7IndV4REVVoMiZi2KmZIIinKqq8IifWpZI8RWJ3SW9bNW49kOypkdwmXSxmK2cBpwV4UDuMg2ofUKoqEAvEY8LyPPCLiY+C5Fv0wyLbkeZa8FfDqtuBufhrOZXhQfvPHdwiROUhc+UCLw6jh9m7JChQ7bDZt9uiMxYsZsWmWGW0BtoBTgREU7CiJ2RE7UEwTMPErN/Ftui8LitL3QLxsB5h5E+4xrZIDn9jX96/C2Xuux/i5b4eJEuOP6juJZNFuagn9XlywhuEifQBIvoKr2qr0oPMNvzyzeL3Nbhr87k7Y8Dx7y3LtjlwQoV6ydzsvQ/FPh5m2AXIFyiLJMSBeGRVHvTTDDEVhuLFZbZZZBG222xQRAUThBRE7IiJ24rV9gauwrZsONHyu0+ZKtziyLZc4zhR59sf4486LJBUcZPj5iqcp2JFRVRdSxHLst13kdu1bt+8JdvepEzjGWqyDKXYxFSWHMAEQGpyAKkigiNviJECAQk2gVmlKUClKUClKjNxveVb3ukvH9d5LLxzBLXLOHdsngEgzbxIbLpeh201RUaaAkUHZafF1IQM8EJOgGy5fvPX+JXw8QblzshygAFwsfx6E5cZ7Yl+UngaRRjAvC8G+TYLwvxVO9otbz3JihWjH9HMYzMiyWbpY7rkeYMQ5dsuDJdTEhG4LM0V4XsbanwbZuNl8JrVmwnAsN1xYwxzB8chWa3i4TxNRm+FddJeTdcNeSdcJe5OGqkS91VVrP0EkjZr4lLVFZLJtE4vdHAbHz1xjNleMz4+JQbnQ4ooirzwJO9vRSX1rv2PxA4LOvMTFcti3nBMhnueTEteVQvYilucfpx5CEcWSfZfhYecLtzxx3qmVjMkxnHcxsczGcssUC82m4NqzKgz44PsPgvqJgaKJJ+6UGTpURfayLw2k5dSu9yyHVCEntTExwpM/Em+ETzm3V5ck28f5wNSdYHkhI2hUG7VGkx5kdqXEfbfYfAXGnWyQgMCTlCFU7KioqKipQclKUoFKVp+0NmWbVuOheLhCmXSfOkhb7PZoAIcy7TnEXy4zAqqJ1L0kRESoAAJmZCAkSBs1yudtssCRdbxcI0GFEbV1+TJdFppoE9SMyVEFE+qrUwDxF2HIO+qsFzLYja/km2O3tsW4/uE6c5HjPD8+plxzt6cr2rhsOm7lnEyHm/iFOHfru0SPwsZaMnbDZC5RR6GTREmSR+cp4VVC5VoWU7L0/Fj4h18OurpmRWGyjfstlsvpYrPwpI8bTauOvOoJCqMNNipmSKnZEFFRSSg1zazniF2la4GJuaIbh4lLloeTQ3cpiLMukAUVfYR6OW2wdPpR1eteppDbT9RSHcx3yOMtA1sfTueYVDZFA9tK3M3SA2KdkVXLY7IVptPTqdBtE+fCd66mwt3X7CvCnM3sxbbfIvzWLMXePCIDSM7OeaBW2unr6+hXXBTjr54+fPetKwaT/2kM29WSZnLPhvax195h25t21L6lwCKXCuI15iq35qCq8dSqPP2oPQ2MZXjGa2WNkmH5Dbb3apY9TE23ygkMOJ/lMFVF/3rK1L8u0nGK9ydhaouYYXmzvLj0mO0q268H/Rc4gqIyUXjjzk6XwT8jiJyK5HVG0yz5u54/kliPG81xpwGL9YnXfN8kjRVakR3eER+K8gkTTyInPBCSA4BgIb/AEpSgUpSgjeQRR3FukcMmNg/h+tFiXW7MGPUFwyBxEegsF9RitdEohVOFckRCT9NUqyVJ/DIPvDVjedO/FJzu63HKnXPmTcuSZRU/YIiRmk/ytpVYoFKiO0dfbb2ttGJjRZfkOGavt1pWVJm43dRg3G7XMnOBYV8F89hlsE6l6OnrUuOrtxWqeHzNs5jZXuHVtqyu47KtOAHGTHrxc5TTslyU9HJw7Y/KTpF02zQPxC+JEcRCVVSg9M0ryPL0juKPqCduHZfiR2FjmzIlqevkpqHe2xx+1PgCu+yewAKxnmA6UAiLqIuFXq71d/D7n962rpDB9j5HbRgXTI7HEuEyOIqIg642ilwi90RV7on0VKDObFwGw7Nw+fhuRNn7NMQDafaXpfhyWyRxiSyX8jzTog4BJ6ECLWE0jmt9zDDnYeZeSmW4vPfx7I0Zb8ts58fp/HAOV6G32jZkgPPKBIBF7otUCpPaR/hvxOX63M/DGzbEol46Pl7ZbpCxn3f3JmXBBfsyNBWKUpQKlm87ze7gOP6exG4vQL1n8h6O/OYXh23WZgRO4SgXnkT6DajtkncHpbJccCtVOpPh4/xF4idg5E98QYrarTisNPk046Bz5Sp9zGRBRf/AEBoKNjmO2LELBbsWxi1R7ZaLRFbhQYccOhqOw2KCACnyRERErJUqY77t24b/jtpxXT04rRIvV2Yi3q/NGyj9otfdX3mAdXgnlREAeEJRUurheKCnUrynbRv+ifEtgOqsT23mWc2zNIVxcv1lya8+9pNqBhtDauAPOfisgRr5agq9CqSdKJxWyX7VO1Np59mF+2ds7Mdf4bZHgjYnDxXIgtyPsC0hO3CW61yRKpqSC06vQIhyorzQeiK+HWm3mzZebFxtwVEwJOUJF7KiovqlQ7wcbEy/ZGpZM/L70WQFaMgudlt+QkwLXvyDGfUGZioCIKqQpwpiiCSipInC1dKCO6haPV2b3jw/nwNjiw0yDCU44Rm0k4jci3p35VIj5Ag/IWZcYE56FqxVJ93D7kybV+wWfhdtOWs2eSX9cO6NHCVpfsslyE5+7I1WKBSlTnxFX6647pPLZVgkrHu82D7otjyerU2a4MSOaf6XX21/tQYPU7H+KOX3Lfd1VX7d1yLLhDB9wj2xtzofngn/MmOtqSF6+ztx0TjqPmuypLcOK9Le6vLYbJwulOV4FOV4T5r2rpY1j1qxLHbVitijJHttmhMW+Gyno2wy2jbY/2EUSslQfzcy7xF6szfBNv7P2HKyaLmeR47csfxizv4bevLslpQCRttX/ZfIF180R10+vpT4BUuAq1OFrrxL+DzEMKg7gPB4shyxWk7lOtpxXnZ0dGXEiMNzUa80zIBQSFDEuF4Q05r0htTB/8AEzW2T6996e7f4jtUm2e2eR53kec2odfR1D1cc88dSc/VK1XL/D5i2f6Ptuk8suEtxi1QoDUS6wuI8qNMiCHkzGeepAcEwQkRepPVF5SgiO8cczTwnWazbswrdmw8jZZv9qtd/sOU3lbnDucWXJbjkrQGKJFeFXENFZ6B7KnTxXsASQhQkRe6c9689xPDFnuVX3H5e/d+TdhWTFJrVztlkax6PaWH5jX6MicTZmsowX4hRPLDq4XpVUr0LQSnedhudpjQt2YXDddybBgckPxo6J13mzLwU23F/UqgPmtc/lfab44QjRaVZrxbMhs8G/2Wa3Mt1zjNTIkhteQeZcFDAx+yiqKn713Kk/huH3Pht714nZvBMnulgij/AMuCj3tEJv8AYIkmMH7BQVilKUClKUCo3kEUdxbpHDJjYP4frRYl1uzBj1BcMgcRHoLBfUYrXRKIVThXJEQk/TVKslSfwyD7w1Y3nTvxSc7utxyp1z5k3LkmUVP2CIkZpP8AK2lBWKUqI7R19tva20YmNFl+Q4Zq+3WlZUmbjd1GDcbtcyc4FhXwXz2GWwTqXo6etS46u3FBbqV5m8PmbZzGyvcOrbVldx2VacAOMmPXi5ymnZLkp6OTh2x+UnSLptmgfiF8SI4iEqqlYCXpHcUfUE7cOy/EjsLHNmRLU9fJTUO9tjj9qfAFd9k9gAVjPMB0oBEXURcKvV3oPXFa1sXAbDs3D5+G5E2fs0xANp9pel+HJbJHGJLJfyPNOiDgEnoQItYPw+5/etq6QwfY+R20YF0yOxxLhMjiKiIOuNopcIvdEVe6J9FSqDQT/SOa33MMOdh5l5KZbi89/HsjRlvy2znx+n8cA5XobfaNmSA88oEgEXui1QKk9pH+G/E5frcz8MbNsSiXjo+XtlukLGfd/cmZcEF+zI1WKBSlKCWbzvN7uA4/p7Ebi9AvWfyHo785heHbdZmBE7hKBeeRPoNqO2SdwelslxwK1Qccx2xYhYLdi2MWqPbLRaIrcKDDjh0NR2GxQQAU+SIiIlTnDx/iLxE7ByJ74gxW1WnFYafJpx0DnylT7mMiCi/+gNVigUqY77t24b/jtpxXT04rRIvV2Yi3q/NGyj9otfdX3mAdXgnlREAeEJRUurheKkNtG/6J8S2A6qxPbeZZzbM0hXFy/WXJrz72k2oGG0Nq4A85+KyBGvlqCr0KpJ0onFB6spXne/ap2ptPPswv2ztnZjr/AA2yPBGxOHiuRBbkfYFpCduEt1rkiVTUkFp1egRDlRXmsp4ONiZfsjUsmfl96LICtGQXOy2/ISYFr35BjPqDMxUBEFVIU4UxRBJRUkThaC4utNvNmy82LjbgqJgScoSL2VFRfVKkGoWj1dm948P58DY4sNMgwlOOEZtJOI3It6d+VSI+QIPyFmXGBOehasVSfdw+5Mm1fsFn4XbTlrNnkl/XDujRwlaX7LJchOfuyNBWKUpQKjup2P8AFHL7lvu6qr9u65Flwhg+4R7Y250PzwT/AJkx1tSQvX2duOicdR85zxFX6647pPLZVgkrHu82D7otjyerU2a4MSOaf6XX21/tW6Y1j1qxLHbVitijJHttmhMW+Gyno2wy2jbY/wBhFEoO7Kktw4r0t7q8thsnC6U5XgU5XhPmvav5w5d4i9WZvgm39n7DlZNFzPI8duWP4xZ38NvXl2S0oBI22r/svkC6+aI66fX0p8AqXAV/SOtW2pg/+Jmtsn177092/wAR2qTbPbPI87yPObUOvo6h6uOeeOpOfqlB5vcLXXiX8HmIYVB3AeDxZDlitJ3KdbTivOzo6MuJEYbmo15pmQCgkKGJcLwhpzXX3jjmaeE6zWbdmFbs2HkbLN/tVrv9hym8rc4dziy5LcclaAxRIrwq4horPQPZU6eKt2X+HzFs/wBH23SeWXCW4xaoUBqJdYXEeVGmRBDyZjPPUgOCYISIvUnqi8pWmxPDFnuVX3H5e/d+TdhWTFJrVztlkax6PaWH5jX6MicTZmsowX4hRPLDq4XpVUoPQgkhChIi90571Kt52G52mNC3ZhcN13JsGByQ/GjonXebMvBTbcX9SqA+a1z+V9pvjhCNFq1KDp2a8WzIbPBv9lmtzLdc4zUyJIbXkHmXBQwMfsoqip+9dypP4bh9z4be9eJ2bwTJ7pYIo/8ALgo97RCb/YIkmMH7BVYoFKUoJT4UV6fDJqqIX6sHD7TAfT5o8xFbadRfv1tlzVWqSaJdHGLnnOnZJID+K3+RdLeC+rlourrkyOY/PoB45cZP/lF9fVa3QS7Jc01fsXPb94Xc1scuTJl2Bq6yIs5tAh3SA44oELRifU4okPDg8Jwipzyi1HNHWrHNJeKHPdOaxuzkbWdsxSNkM+znKJ6Fjt0cfNCFozVVZRxpFcJrnhOOpERFq9bR0fqvc8aFH2RiDF1ctpq5BltvvRJkQl7F5MmOYPNc/NBNOfnXVsHh805iuv7zq/GsHi2zHciaeauzEV95t+cjoqLhPSkPzzNRVU8xXOvj0WghhJkvjwndKLKsXh6hS/VOpqbnbjR/2Vm3IY/6nuPkNesIMGHbIUe3W6K1GixWhZYZaFBBtsURBEUTsiIiIiJXlz/uuPAn/wDAz/8AJrx//XXo3BcIxfWuH2jAsKtnu6xWKKEK3xPPce8lkE4EetwiMuPqRKv3oM7UpvS+0eKfDUa7+wa/yX2jj5e0XGy+Vz+/sz3H7LVWqSavdHNNt7F2c0SOW6G5Gwe0ueouDbydcmuh+8yU7HL7wv8AcK3SlKBUp1GvkbS3hDd/VezC3TwRfXyTx20tCv7dcd3/AGWqtUkmOjg/iThzXyRu3bOsA2sCXsKXe1k8+2H+t6JJkr/pgL6fMK3Wi7L3Fiep7jiUHLmbg2zmN5CxRJzLQlFiyjAib9oMiTyxNRURVEXkuE7c1vVYTMsKxLYeOTMQzjHYF8s1wDokwprKONOJ6ovC+iovdFTuipyiotB5T2lrHAvDzvTVOT6HjnjWUZ7liWvIbRBkuONX+2mDjkl+QwZKik0Xx+ciIqKXCqvPFV+ZJ0b4r/4y1Hm+Hu3UcEvgwbraLwCs8v8AldTUltG3OTaIHFUDXjui9kVErNaz8NOkNQXh3I8CwRmJeHmfZveUybJuEttjnnyW35Tjjjbf+QCQeyduyV+bL8M2jtu3xrJs8wRqXeGmUjLcIc6Vb5LzCLyjLzsVxsnm/wDI4pD3XtQTPwT3CdFd2trq1ZBNvmCYLl5WXEZsqQskgipHbN2IL6qqugw6RNiqqqoicc9u3pusLh+GYnr7HIWIYPjtvsdltzflxYMFgWmWh9V4Efmq8qq+qqqqvK1mqCU+JBfNwvG7eH68vYGG+UnzXyr/AAZDnH/SZcX9kWqtUkzl0c03tgeBxiRyPiDcjOLwiegErTsG3tH/AOo49LeH7wV/Za3QKlPiZ+DV8WQX6UXMsOlv/RGWsjtzjqr9ugS5+1VatQ2/hLuyNW5VgsWSkaXerTJiw5P/ALvKUF8h5PuDqAaf6aDb6Vqmq85Z2VrrH84bjLFdusIHJcRfzQ5Y/BIjF9DaeFxsk/qBfWtroFKUoFKUoFSnSv4mbbslt/oSNgN+UvyXy8eszLnH/Vac/vzVJvV4teO2efkF7mtw7dbIzsyZJdXgGWGwUzMvsgiqr+1T/wAOdqucPVkPIL9CciXfMJs3LJ0d1OHI53CQcluOf3ZZcaZ/6XqvrQU2lKUClKUCpT4UV6fDJqqIX6sHD7TAfT5o8xFbadRfv1tlzVWqSaJdHGLnnOnZJID+K3+RdLeC+rlourrkyOY/PoB45cZP/lF9fVQrdS7Jc01fsXPb94Xc1scuTJl2Bq6yIs5tAh3SA44oELRifU4okPDg8Jwipzyi1Ua0XaOj9V7njQo+yMQYurltNXIMtt96JMiEvYvJkxzB5rn5oJpz86CC6OtWOaS8UOe6c1jdnI2s7ZikbIZ9nOUT0LHbo4+aELRmqqyjjSK4TXPCcdSIiLXwSZL48J3SiyrF4eoUv1Tqam5240f9lZtyGP8Aqe4+Q1c7B4fNOYrr+86vxrB4tsx3ImnmrsxFfebfnI6Ki4T0pD88zUVVPMVzr49FqM/91x4E/wD4Gf8A5NeP/wCug9RwYMO2Qo9ut0VqNFitCywy0KCDbYoiCIonZERERESuesFguEYvrXD7RgWFWz3dYrFFCFb4nnuPeSyCcCPW4RGXH1IlX71naCU3pfaPFPhqNd/YNf5L7Rx8vaLjZfK5/f2Z7j9lqrVJNXujmm29i7OaJHLdDcjYPaXPUXBt5OuTXQ/eZKdjl94X+9boFKUoJTqNfI2lvCG7+q9mFungi+vknjtpaFf2647v+y1Vqkkx0cH8ScOa+SN27Z1gG1gS9hS72snn2w/1vRJMlf8ATAX0+dboNF2XuLE9T3HEoOXM3BtnMbyFiiTmWhKLFlGBE37QZEnliaioiqIvJcJ25rzltLWOBeHnemqcn0PHPGsoz3LEteQ2iDJccav9tMHHJL8hgyVFJovj85ERUUuFVeeK9WZlhWJbDxyZiGcY7AvlmuAdEmFNZRxpxPVF4X0VF7oqd0VOUVFrTNZ+GnSGoLw7keBYIzEvDzPs3vKZNk3CW2xzz5Lb8pxxxtv/ACASD2Tt2SgwsyTo3xX/AMZajzfD3bqOCXwYN1tF4BWeX/K6mpLaNucm0QOKoGvHdF7IqJWmeCe4Toru1tdWrIJt8wTBcvKy4jNlSFkkEVI7ZuxBfVVV0GHSJsVVVVETjnt2pmy/DNo7bt8aybPMEal3hplIy3CHOlW+S8wi8oy87FcbJ5v/ACOKQ917VuuH4ZievschYhg+O2+x2W3N+XFgwWBaZaH1XgR+aryqr6qqqq8rQZqpT4kF83C8bt4fry9gYb5SfNfKv8GQ5x/0mXF/ZFqrVJM5dHNN7YHgcYkcj4g3Izi8InoBK07Bt7R/+o49LeH7wV/ZQrdKUoJT4mfg1fFkF+lFzLDpb/0RlrI7c46q/boEuftVWrUNv4S7sjVuVYLFkpGl3q0yYsOT/wC7ylBfIeT7g6gGn+muTVecs7K11j+cNxliu3WEDkuIv5ocsfgkRi+htPC42Sf1AvrQbXSlKBSlKBSldK9Xi147Z5+QXua3Dt1sjOzJkl1eAZYbBTMy+yCKqv7UE20r+Jm27Jbf6EjYDflL8l8vHrMy5x/1WnP781VqmXhztVzh6sh5BfoTkS75hNm5ZOjupw5HO4SDktxz+7LLjTP/AEvVfWqbQKUpQSvcGNZJarvaN1a8tLtzyLGGnIdxtLR9JXuyukJSIwp6FIbIBeY5/nE2+RR4yTfsTyvH84xyBlmK3Nq4Wq5so9GkN8pynKooki8KBiSKJASIQkJCSIqKlZapRk2rMqxvJJ2xdH3aHbrrcSJ+8Y3ciIbNfXlRE841ASOHKVERPaGhJC/81t3gVEKvSpLG8SGHWYwt+37Zc9Y3Lq8tf4lbRu3Olzx+DcwUobiKvHCK6LnCj1Ngq8VSbNkePZFFGbj99t1zjknIvQ5QPgqfVCBVSgyNK0/Ltw6pwIecz2PjdmNV6QZmXNlt5wl9BBtS6zJfkIoqr8krTntm7J2WSW3TGFTLPbHvhdzDLYDsOO02vPxw7e50SZR+iorosMqioSOOJ8KhlNwZ1kEZyHq3WRtO53kza+S4SdTdjt/V0PXSQnyFtOUaBePOe6QT4UcINwwbDLFrvELRhGNMut22yxQisec4rjpoKd3HDXubhlyZmvciIlXutYzW2sbLrW3Sm4s6feLzdXBk3q/XNwXZ91kIPSjjxigiiCnYGwEW2x+EBFO1bhQKUpQK0/a2vm9lYe9YWbidrusV9m52W5tpydvuUc0cjvon8woaIhh6G2TgL2Na3ClBoupdkP57Z5EHJLW3ZMyx9wYWSWRHFP2OUqco40SoiuRnURXGXeODBe/BCYjvVaFsfVDGazYOVY7kMvFMzs4K3br/AAWxcPyVJCKLJZL4ZUU1Tkmj44X4gJs+DTXWN15LgvNv3zgU2yI12/iWwx3rnYpA8rwZk2KyIS8cKSSG0bFSQUec9aCv0rWsU2XrnPI4y8Iz3Hb+yacidsubElP/ALZLXbyPNcNw+KU3Lcts1kjgnUT1xntRgFPqpOEiJQZqtY2LsCza1xl3Iru2/KdNwIlut0UeuXc5rnKMxI4fzumqcInoiIREqCJEmkSPEGxlgrC0PiFx2DLd5Fu6NoULH2V47G5cnB6HQ9OUijIPunwcLzWVwXU9xg5IuydnZGOUZkbZNRTBnybdY2TREOPb2FVVBC44N41J5z0UhDpbEObTWC33GLVcspztWHM3zKUN1yBY7qusRjQEBmCwSoiqxHaEWxXhOsvMcVEJ0qodKUClKUEXelf4C7KnTrk6DGudg3AH1kKnAWPIXlQT80lXgI0xUBUL8oSerlf+ITi0V0r3ZLPklnm4/kFsi3G2XFg40uJKaRxl9o04IDEuxCqKqKi1JmLdtLRgpDx62z9iYAwiDHgJJQshsrf9DZvEg3COCflEzGQKJwivrwiBZqVomHby1TnU1bNYszhN3sOEesdx6oF1jqvydhSECQHflPiBEVUXjnit7oFK1DNtvaw1yQM5tndmtUp5eliE7KEpkkl7oLMYeXXiVO/SAEv2rS3r7tvcq+78UtF11viDq9Mq+3aOjN+nMqncYMM+Vh89086UiOj/ACsc8OIHFnsr/HDMf8GrC6D+K2GWzIz6YictvKHDrFlbJF7uOEjbkhE56GE8su76cWisHheFYxr3HImJ4faW7dbIaF5bQEREZkSkbjhkqk44ZKRGZqpERKRKqqq1nKBSlKBSlKBUr3BjWSWq72jdWvLS7c8ixhpyHcbS0fSV7srpCUiMKehSGyAXmOf5xNvkUeMkqlKDE4nleP5xjkDLMVubVwtVzZR6NIb5TlOVRRJF4UDEkUSAkQhISEkRUVKy1SjJtWZVjeSTti6Pu0O3XW4kT94xu5EQ2a+vKiJ5xqAkcOUqIie0NCSF/wCa27wKj8RvEhh1mMLft+2XPWNy6vLX+JW0btzpc8fg3MFKG4irxwiui5wo9TYKvFBWqVjrNkePZFFGbj99t1zjknIvQ5QPgqfVCBVSsBl24dU4EPOZ7HxuzGq9IMzLmy284S+gg2pdZkvyEUVV+SUG4VMtwZ1kEZyHq3WRtO53kza+S4SdTdjt/V0PXSQnyFtOUaBePOe6QT4UcIMW9s3ZOyyS26YwqZZ7Y98LuYZbAdhx2m15+OHb3OiTKP0VFdFhlUVCRxxPhXcdbaxsutbdKbizp94vN1cGTer9c3Bdn3WQg9KOPGKCKIKdgbARbbH4QEU7UGTwbDLFrvELRhGNMut22yxQisec4rjpoKd3HDXubhlyZmvciIlXutZ2lKBSlKDT9ra+b2Vh71hZuJ2u6xX2bnZbm2nJ2+5RzRyO+ifzChoiGHobZOAvY1rq6l2Q/ntnkQcktbdkzLH3BhZJZEcU/Y5SpyjjRKiK5GdRFcZd44MF78EJiO9VoWx9UMZrNg5VjuQy8UzOzgrduv8ABbFw/JUkIoslkvhlRTVOSaPjhfiAmz4NA32lSBjdeS4Lzb984FNsiNdv4lsMd652KQPK8GZNisiEvHCkkhtGxUkFHnPWt6xTZeuc8jjLwjPcdv7JpyJ2y5sSU/8AtktBstKwuR5rhuHxSm5bltmskcE6ieuM9qMAp9VJwkRKncjxBsZYKwtD4hcdgy3eRbujaFCx9leOxuXJweh0PTlIoyD7p8HC80G77F2BZta4y7kV3bflOm4ES3W6KPXLuc1zlGYkcP53TVOET0REIiVBEiTB6awW+4xarllOdqw5m+ZShuuQLHdV1iMaAgMwWCVEVWI7Qi2K8J1l5jiohOlXDgup7jByRdk7OyMcozI2yaimDPk26xsmiIce3sKqqCFxwbxqTznopCHS2NJoFKUoFRd6V/gLsqdOuToMa52DcAfWQqcBY8heVBPzSVeAjTFQFQvyhJ6uV/4hOLRXSvdks+SWebj+QWyLcbZcWDjS4kppHGX2jTggMS7EKoqoqLQd2lRli3bS0YKQ8ets/YmAMIgx4CSULIbK3/Q2bxINwjgn5RMxkCicIr68Im14dvLVOdTVs1izOE3ew4R6x3HqgXWOq/J2FIQJAd+U+IERVReOeKDe6UrUM229rDXJAzm2d2a1Snl6WITsoSmSSXugsxh5deJU79IAS/ag2+ovnsr/ABwzH/Bqwug/ithlsyM+mInLbyhw6xZWyRe7jhI25IROehhPLLu+nHK9fdt7lX3filouut8QdXplX27R0Zv05lU7jBhnysPnunnSkR0f5WOeHEo+F4VjGvcciYnh9pbt1shoXltARERmRKRuOGSqTjhkpEZmqkREpEqqqrQZylKUClKUClKUHy42282TLzYm2YqJCScoSL6oqfNKnl48OHh4yGSU2/6F11c5BLyTszFoLxqv1UjaVaUoM7ierdZYEXXguucYxwuOnm02iPDXj6fhANbRSlApSlApSlApSlApSlBpuVaX07nUgpeb6nw3IXzXknbrYossyX7q6BKtdTHtA6IxGSM3E9KYFZZALyLtuxuHGMV+qE22ipSlBvtKUoFKUoFKUoFKUoNfzHAME2Bb/dueYVYckhii8R7vbWZjac+vwuiSV4gvmB4NCzgrLCwyxR7ej3QkRq3Mgz08+nQg9PH24pSg9la01jrXArRHfwbXuM465KYA3ztNpjwydIkRSUlaAepVXuvPzrdaUoFKUoFKUoFKUoFKUoFfLjbbzZMvNibZiokJJyhIvqip80pSgnl48OHh4yGSU2/6F11c5BLyTszFoLxqv1UjaVazuJ6t1lgRdeC65xjHC46ebTaI8NePp+EA0pQbRSlKBSlKBSlKBSlKBWm5VpfTudSCl5vqfDchfNeSdutiiyzJfuroEq0pQdTHtA6IxGSM3E9KYFZZALyLtuxuHGMV+qE22ipW+0pQKUpQKUpQKUpQK1/McAwTYFv9255hVhySGKLxHu9tZmNpz6/C6JJSlB4gvmB4NCzgrLCwyxR7ej3QkRq3Mgz08+nQg9PH24r2VrTWOtcCtEd/Bte4zjrkpgDfO02mPDJ0iRFJSVoB6lVe68/OlKDdaUpQKUpQKUpQf//Z;" vertex="1" parent="1">
          <mxGeometry width="536" height="242" as="geometry" />
        </mxCell>
      </root>
    </mxGraphModel>
  </diagram>
</mxfile>
